{"title":"Scarface (1983) &amp; BluRay Xtras 1080p","uid":12133372,"size":6250014848,"categoryP":"video","categoryS":"movies","magnet":"?xt=urn:btih:477a13c9fdc97f9b572565afbacbaa17016f28f6&amp;dn=Scarface+%281983%29+%26amp%3B+BluRay+Xtras+1080p&amp;tr=udp%3A%2F%2Ftracker.openbittorrent.com%3A80&amp;tr=udp%3A%2F%2Fopen.demonii.com%3A1337&amp;tr=udp%3A%2F%2Ftracker.coppersurfer.tk%3A6969&amp;tr=udp%3A%2F%2Fexodus.desync.com%3A6969","seeders":1,"leechers":1,"uploader":"AlienMethod","files":16,"time":1437113139,"description":"x264/mp4\n6-channel AC3@448kbps (audio 1)\n2-channel AAC@128kbps (audio 2)\nEnglish Subs\nBluRay Xtras (Making of, etc.) Incl.\n\n\n&quot;In 1980 Miami, a determined Cuban immigrant takes over a\ndrug cartel while succumbing to greed.&quot;\n\n\nGeneral\nComplete name : F:TorrentsScarface (1983) &amp; BluRay Xtras 1080p\nScarface (1983) 1080p.mp4\nFormat : MPEG-4\nFormat profile : Base Media\nCodec ID : isom\nFile size : 3.91 GiB\nDuration : 2h 50mn\nOverall bit rate mode : Variable\nOverall bit rate : 3 290 Kbps\nEncoded date : UTC 2015-07-17 02:09:11\nTagged date : UTC 2015-07-17 02:09:11\nWriting application : My MP4Box GUI 0.6.0.6 \n\nVideo\nID : 1\nFormat : AVC\nFormat/Info : Advanced Video Codec\nFormat profile : &lt;a class=&quot;__cf_email__&quot; href=&quot;/cdn-cgi/l/email-protection&quot; data-cfemail=&quot;4d05242a250d0179637d&quot;&gt;[email&amp;#160;protected]&lt;/a&gt;&lt;script data-cfhash='f9e31' type=&quot;text/javascript&quot;&gt;\n/* &lt;![CDATA[ */!function(){try{var t=&quot;currentScript&quot;in document?document.currentScript:function(){for(var t=document.getElementsByTagName(&quot;script&quot;),e=t.length;e--;)if(t[e].getAttribute(&quot;data-cfhash&quot;))return t[e]}();if(t&amp;&amp;t.previousSibling){var e,r,n,i,c=t.previousSibling,a=c.getAttribute(&quot;data-cfemail&quot;);if(a){for(e=&quot;&quot;,r=parseInt(a.substr(0,2),16),n=2;a.length-n;n+=2)i=parseInt(a.substr(n,2),16)^r,e+=String.fromCharCode(i);e=document.createTextNode(e),c.parentNode.replaceChild(e,c)}t.parentNode.removeChild(t);}}catch(u){}}()/* ]]&gt; */&lt;/script&gt;\nFormat settings, CABAC : Yes\nFormat settings, ReFrames : 4 frames\nCodec ID : avc1\nCodec ID/Info : Advanced Video Coding\nDuration : 2h 50mn\nBit rate : 2 714 Kbps\nMaximum bit rate : 11.4 Mbps\nWidth : 1 920 pixels\nHeight : 800 pixels\nDisplay aspect ratio : 2.40:1\nFrame rate mode : Constant\nFrame rate : 23.976 fps\nColor space : YUV\nChroma subsampling : 4:2:0\nBit depth : 8 bits\nScan type : Progressive\nBits/(Pixel*Frame) : 0.074\nStream size : 3.22 GiB (82%)\nTitle : VideoEncode.h264\nWriting library : x264 core 142 r2479 dd79a61\nEncoded date : UTC 2015-07-17 02:09:11\nTagged date : UTC 2015-07-17 02:09:52\n\nAudio #1\nID : 2\nFormat : AC-3\nFormat/Info : Audio Coding 3\nMode extension : CM (complete main)\nFormat settings, Endianness : Big\nCodec ID : ac-3\nDuration : 2h 50mn\nBit rate mode : Constant\nBit rate : 448 Kbps\nChannel(s) : 6 channels\nChannel positions : Front: L C R, Side: L R, LFE\nSampling rate : 48.0 KHz\nBit depth : 16 bits\nCompression mode : Lossy\nStream size : 545 MiB (14%)\nTitle : Scarface (1983) 1080p_track2.ac3\nEncoded date : UTC 2015-07-17 02:09:46\nTagged date : UTC 2015-07-17 02:09:52\n\nAudio #2\nID : 3\nFormat : AAC\nFormat/Info : Advanced Audio Codec\nFormat profile : LC\nCodec ID : 40\nDuration : 2h 50mn\nBit rate mode : Variable\nBit rate : 124 Kbps\nMaximum bit rate : 168 Kbps\nChannel(s) : 2 channels\nChannel positions : Front: L R\nSampling rate : 48.0 KHz\nCompression mode : Lossy\nStream size : 151 MiB (4%)\nTitle : Scarface (1983) 1080p_track2_Output.m4a\nEncoded date : UTC 2015-07-17 02:09:50\nTagged date : UTC 2015-07-17 02:09:52","torrent":{"xt":"urn:btih:477a13c9fdc97f9b572565afbacbaa17016f28f6","amp;dn":"Scarface+%281983%29+%26amp%3B+BluRay+Xtras+1080p","amp;tr":["udp%3A%2F%2Ftracker.openbittorrent.com%3A80","udp%3A%2F%2Fopen.demonii.com%3A1337","udp%3A%2F%2Ftracker.coppersurfer.tk%3A6969","udp%3A%2F%2Fexodus.desync.com%3A6969"],"infoHash":"477a13c9fdc97f9b572565afbacbaa17016f28f6","infoHashBuffer":{"type":"Buffer","data":[71,122,19,201,253,201,127,155,87,37,101,175,186,203,170,23,1,111,40,246]},"announce":[],"urlList":[]}}